# plasma energy orb
mtllib projetil.mtl
o projetil
v 0 0.35 0
v 0 -0.35 0
v 0.35 0 0
v 0 0 0.35
v -0.35 0 0
v 0 0 -0.35
v 0.2475 0.2475 0
v 0 0.2475 0.2475
v -0.2475 0.2475 0
v 0 0.2475 -0.2475
v 0.2475 0 0.2475
v -0.2475 0 0.2475
v -0.2475 0 -0.2475
v 0.2475 0 -0.2475
v 0.2475 -0.2475 0
v 0 -0.2475 0.2475
v -0.2475 -0.2475 0
v 0 -0.2475 -0.2475
usemtl projetil
s 1
f 1 7 8
f 7 3 11
f 7 11 8
f 8 11 4
f 1 8 9
f 8 4 12
f 8 12 9
f 9 12 5
f 1 9 10
f 9 5 13
f 9 13 10
f 10 13 6
f 1 10 7
f 10 6 14
f 10 14 7
f 7 14 3
f 2 15 16
f 15 3 11
f 15 11 16
f 16 11 4
f 2 16 17
f 16 4 12
f 16 12 17
f 17 12 5
f 2 17 18
f 17 5 13
f 17 13 18
f 18 13 6
f 2 18 15
f 18 6 14
f 18 14 15
f 15 14 3

